<mxfile host="app.diagrams.net" modified="2023-09-21T09:43:11.584Z" agent="Mozilla/5.0 (Windows NT 10.0; Win64; x64) AppleWebKit/537.36 (KHTML, like Gecko) Chrome/117.0.0.0 Safari/537.36 Edg/117.0.2045.31" etag="M60IKh3sYq4QSCfRk1y9" version="21.8.0" type="github">
  <diagram name="Page-1" id="zMLZRn2YXzDyXfLltK2j">
    <mxGraphModel dx="2458" dy="933" grid="1" gridSize="10" guides="1" tooltips="1" connect="1" arrows="1" fold="1" page="1" pageScale="1" pageWidth="827" pageHeight="1169" math="0" shadow="0">
      <root>
        <mxCell id="0" />
        <mxCell id="1" parent="0" />
        <mxCell id="n0EiRWBT-wCzMLjuJNqS-1" value="INITIATEUR" style="shape=umlActor;verticalLabelPosition=bottom;verticalAlign=top;html=1;" parent="1" vertex="1">
          <mxGeometry x="110" y="110" width="30" height="60" as="geometry" />
        </mxCell>
        <mxCell id="n0EiRWBT-wCzMLjuJNqS-2" value="VALIDATEUR" style="shape=umlActor;verticalLabelPosition=bottom;verticalAlign=top;html=1;" parent="1" vertex="1">
          <mxGeometry x="110" y="324" width="30" height="60" as="geometry" />
        </mxCell>
        <mxCell id="n0EiRWBT-wCzMLjuJNqS-5" value="APPROBATEUR" style="shape=umlActor;verticalLabelPosition=bottom;verticalAlign=top;html=1;" parent="1" vertex="1">
          <mxGeometry x="110" y="612" width="30" height="60" as="geometry" />
        </mxCell>
        <mxCell id="n0EiRWBT-wCzMLjuJNqS-6" value="ADMIN" style="shape=umlActor;verticalLabelPosition=bottom;verticalAlign=top;html=1;" parent="1" vertex="1">
          <mxGeometry x="100" y="880" width="30" height="60" as="geometry" />
        </mxCell>
        <mxCell id="n0EiRWBT-wCzMLjuJNqS-7" value="AUTHENTIFICATION" style="ellipse;whiteSpace=wrap;html=1;" parent="1" vertex="1">
          <mxGeometry x="1070" y="548" width="180" height="50" as="geometry" />
        </mxCell>
        <mxCell id="n0EiRWBT-wCzMLjuJNqS-8" value="INITIER DEMANDE" style="ellipse;whiteSpace=wrap;html=1;" parent="1" vertex="1">
          <mxGeometry x="480" y="80" width="180" height="50" as="geometry" />
        </mxCell>
        <mxCell id="n0EiRWBT-wCzMLjuJNqS-10" value="CONSULTER HISTORIQUE DE SES DEMANDES" style="ellipse;whiteSpace=wrap;html=1;" parent="1" vertex="1">
          <mxGeometry x="420" y="146" width="270" height="50" as="geometry" />
        </mxCell>
        <mxCell id="n0EiRWBT-wCzMLjuJNqS-13" value="VALIDER DEMANDE" style="ellipse;whiteSpace=wrap;html=1;" parent="1" vertex="1">
          <mxGeometry x="480" y="346" width="180" height="50" as="geometry" />
        </mxCell>
        <mxCell id="n0EiRWBT-wCzMLjuJNqS-16" value="APPROUVER DEMANDE" style="ellipse;whiteSpace=wrap;html=1;" parent="1" vertex="1">
          <mxGeometry x="510" y="608" width="180" height="50" as="geometry" />
        </mxCell>
        <mxCell id="n0EiRWBT-wCzMLjuJNqS-18" value="CONSULTER HISTORIQUE DE TOUTES DEMANDES" style="ellipse;whiteSpace=wrap;html=1;" parent="1" vertex="1">
          <mxGeometry x="492.5" y="924" width="270" height="50" as="geometry" />
        </mxCell>
        <mxCell id="n0EiRWBT-wCzMLjuJNqS-19" value="REASSIGNER VALIDATEUR OU APPROBATEUR" style="ellipse;whiteSpace=wrap;html=1;" parent="1" vertex="1">
          <mxGeometry x="512.5" y="850" width="226.8" height="63" as="geometry" />
        </mxCell>
        <mxCell id="n0EiRWBT-wCzMLjuJNqS-20" value="CONSULTER LES DONNEE PILOTAGE" style="ellipse;whiteSpace=wrap;html=1;" parent="1" vertex="1">
          <mxGeometry x="487.5" y="991" width="270" height="50" as="geometry" />
        </mxCell>
        <mxCell id="n0EiRWBT-wCzMLjuJNqS-21" value="" style="endArrow=block;dashed=1;endFill=0;endSize=12;html=1;rounded=0;exitX=1;exitY=0.5;exitDx=0;exitDy=0;entryX=0.5;entryY=0;entryDx=0;entryDy=0;" parent="1" source="n0EiRWBT-wCzMLjuJNqS-10" target="n0EiRWBT-wCzMLjuJNqS-7" edge="1">
          <mxGeometry width="160" relative="1" as="geometry">
            <mxPoint x="590" y="260" as="sourcePoint" />
            <mxPoint x="750" y="260" as="targetPoint" />
          </mxGeometry>
        </mxCell>
        <mxCell id="n0EiRWBT-wCzMLjuJNqS-24" value="INCLUDE" style="edgeLabel;html=1;align=center;verticalAlign=middle;resizable=0;points=[];" parent="n0EiRWBT-wCzMLjuJNqS-21" vertex="1" connectable="0">
          <mxGeometry x="-0.1875" y="-4" relative="1" as="geometry">
            <mxPoint as="offset" />
          </mxGeometry>
        </mxCell>
        <mxCell id="n0EiRWBT-wCzMLjuJNqS-22" value="" style="endArrow=block;dashed=1;endFill=0;endSize=12;html=1;rounded=0;exitX=1;exitY=0.5;exitDx=0;exitDy=0;entryX=0.689;entryY=0.013;entryDx=0;entryDy=0;entryPerimeter=0;" parent="1" source="n0EiRWBT-wCzMLjuJNqS-8" target="n0EiRWBT-wCzMLjuJNqS-7" edge="1">
          <mxGeometry width="160" relative="1" as="geometry">
            <mxPoint x="700" y="104.17" as="sourcePoint" />
            <mxPoint x="860" y="104.17" as="targetPoint" />
            <Array as="points">
              <mxPoint x="980" y="290" />
            </Array>
          </mxGeometry>
        </mxCell>
        <mxCell id="n0EiRWBT-wCzMLjuJNqS-23" value="INCLUDE" style="edgeLabel;html=1;align=center;verticalAlign=middle;resizable=0;points=[];" parent="n0EiRWBT-wCzMLjuJNqS-22" vertex="1" connectable="0">
          <mxGeometry x="-0.134" y="-5" relative="1" as="geometry">
            <mxPoint as="offset" />
          </mxGeometry>
        </mxCell>
        <mxCell id="n0EiRWBT-wCzMLjuJNqS-26" value="" style="endArrow=block;dashed=1;endFill=0;endSize=12;html=1;rounded=0;exitX=1;exitY=0.5;exitDx=0;exitDy=0;entryX=0.044;entryY=0.147;entryDx=0;entryDy=0;entryPerimeter=0;" parent="1" source="n0EiRWBT-wCzMLjuJNqS-13" target="n0EiRWBT-wCzMLjuJNqS-7" edge="1">
          <mxGeometry width="160" relative="1" as="geometry">
            <mxPoint x="820" y="620" as="sourcePoint" />
            <mxPoint x="980" y="620" as="targetPoint" />
          </mxGeometry>
        </mxCell>
        <mxCell id="n0EiRWBT-wCzMLjuJNqS-36" value="INCLUDE" style="edgeLabel;html=1;align=center;verticalAlign=middle;resizable=0;points=[];" parent="n0EiRWBT-wCzMLjuJNqS-26" vertex="1" connectable="0">
          <mxGeometry x="-0.1064" y="-3" relative="1" as="geometry">
            <mxPoint x="-1" y="-1" as="offset" />
          </mxGeometry>
        </mxCell>
        <mxCell id="n0EiRWBT-wCzMLjuJNqS-29" value="" style="endArrow=block;dashed=1;endFill=0;endSize=12;html=1;rounded=0;entryX=0;entryY=1;entryDx=0;entryDy=0;" parent="1" target="n0EiRWBT-wCzMLjuJNqS-7" edge="1">
          <mxGeometry width="160" relative="1" as="geometry">
            <mxPoint x="690" y="632.17" as="sourcePoint" />
            <mxPoint x="850" y="632.17" as="targetPoint" />
          </mxGeometry>
        </mxCell>
        <mxCell id="n0EiRWBT-wCzMLjuJNqS-39" value="INCLUDE" style="edgeLabel;html=1;align=center;verticalAlign=middle;resizable=0;points=[];" parent="n0EiRWBT-wCzMLjuJNqS-29" vertex="1" connectable="0">
          <mxGeometry x="0.0735" y="-5" relative="1" as="geometry">
            <mxPoint x="-1" y="1" as="offset" />
          </mxGeometry>
        </mxCell>
        <mxCell id="n0EiRWBT-wCzMLjuJNqS-32" value="" style="endArrow=block;dashed=1;endFill=0;endSize=12;html=1;rounded=0;exitX=1;exitY=0.5;exitDx=0;exitDy=0;entryX=0.696;entryY=0.973;entryDx=0;entryDy=0;entryPerimeter=0;" parent="1" source="n0EiRWBT-wCzMLjuJNqS-19" target="n0EiRWBT-wCzMLjuJNqS-7" edge="1">
          <mxGeometry width="160" relative="1" as="geometry">
            <mxPoint x="827" y="877" as="sourcePoint" />
            <mxPoint x="987" y="877" as="targetPoint" />
          </mxGeometry>
        </mxCell>
        <mxCell id="n0EiRWBT-wCzMLjuJNqS-42" value="INCLUDE" style="edgeLabel;html=1;align=center;verticalAlign=middle;resizable=0;points=[];" parent="n0EiRWBT-wCzMLjuJNqS-32" vertex="1" connectable="0">
          <mxGeometry x="0.1122" y="-3" relative="1" as="geometry">
            <mxPoint as="offset" />
          </mxGeometry>
        </mxCell>
        <mxCell id="n0EiRWBT-wCzMLjuJNqS-33" value="" style="endArrow=block;dashed=1;endFill=0;endSize=12;html=1;rounded=0;exitX=1;exitY=0.5;exitDx=0;exitDy=0;entryX=0.956;entryY=0.787;entryDx=0;entryDy=0;entryPerimeter=0;" parent="1" source="n0EiRWBT-wCzMLjuJNqS-18" target="n0EiRWBT-wCzMLjuJNqS-7" edge="1">
          <mxGeometry width="160" relative="1" as="geometry">
            <mxPoint x="827" y="915" as="sourcePoint" />
            <mxPoint x="987" y="915" as="targetPoint" />
          </mxGeometry>
        </mxCell>
        <mxCell id="n0EiRWBT-wCzMLjuJNqS-43" value="INCLUDE" style="edgeLabel;html=1;align=center;verticalAlign=middle;resizable=0;points=[];" parent="n0EiRWBT-wCzMLjuJNqS-33" vertex="1" connectable="0">
          <mxGeometry x="0.1714" y="2" relative="1" as="geometry">
            <mxPoint as="offset" />
          </mxGeometry>
        </mxCell>
        <mxCell id="n0EiRWBT-wCzMLjuJNqS-34" value="" style="endArrow=block;dashed=1;endFill=0;endSize=12;html=1;rounded=0;entryX=1;entryY=0.5;entryDx=0;entryDy=0;" parent="1" target="n0EiRWBT-wCzMLjuJNqS-7" edge="1">
          <mxGeometry width="160" relative="1" as="geometry">
            <mxPoint x="757.5" y="1015.17" as="sourcePoint" />
            <mxPoint x="1410" y="610" as="targetPoint" />
            <Array as="points">
              <mxPoint x="1310" y="720" />
              <mxPoint x="1330" y="620" />
            </Array>
          </mxGeometry>
        </mxCell>
        <mxCell id="n0EiRWBT-wCzMLjuJNqS-44" value="INCLUDE" style="edgeLabel;html=1;align=center;verticalAlign=middle;resizable=0;points=[];" parent="n0EiRWBT-wCzMLjuJNqS-34" vertex="1" connectable="0">
          <mxGeometry x="-0.108" y="-3" relative="1" as="geometry">
            <mxPoint as="offset" />
          </mxGeometry>
        </mxCell>
        <mxCell id="n0EiRWBT-wCzMLjuJNqS-46" value="" style="endArrow=none;html=1;rounded=0;entryX=0;entryY=0.5;entryDx=0;entryDy=0;exitX=1;exitY=1;exitDx=0;exitDy=0;exitPerimeter=0;" parent="1" source="n0EiRWBT-wCzMLjuJNqS-1" target="n0EiRWBT-wCzMLjuJNqS-8" edge="1">
          <mxGeometry width="50" height="50" relative="1" as="geometry">
            <mxPoint x="150" y="165" as="sourcePoint" />
            <mxPoint x="200" y="115" as="targetPoint" />
          </mxGeometry>
        </mxCell>
        <mxCell id="n0EiRWBT-wCzMLjuJNqS-47" value="" style="endArrow=none;html=1;rounded=0;entryX=0;entryY=0.5;entryDx=0;entryDy=0;exitX=1;exitY=1;exitDx=0;exitDy=0;exitPerimeter=0;" parent="1" source="n0EiRWBT-wCzMLjuJNqS-1" target="n0EiRWBT-wCzMLjuJNqS-10" edge="1">
          <mxGeometry width="50" height="50" relative="1" as="geometry">
            <mxPoint x="150" y="182" as="sourcePoint" />
            <mxPoint x="350" y="146" as="targetPoint" />
          </mxGeometry>
        </mxCell>
        <mxCell id="n0EiRWBT-wCzMLjuJNqS-49" value="" style="endArrow=none;html=1;rounded=0;entryX=-0.011;entryY=0.267;entryDx=0;entryDy=0;entryPerimeter=0;exitX=1;exitY=1;exitDx=0;exitDy=0;exitPerimeter=0;" parent="1" source="n0EiRWBT-wCzMLjuJNqS-2" target="n0EiRWBT-wCzMLjuJNqS-13" edge="1">
          <mxGeometry width="50" height="50" relative="1" as="geometry">
            <mxPoint x="150" y="360" as="sourcePoint" />
            <mxPoint x="480" y="320" as="targetPoint" />
          </mxGeometry>
        </mxCell>
        <mxCell id="n0EiRWBT-wCzMLjuJNqS-53" value="" style="endArrow=none;html=1;rounded=0;entryX=0;entryY=0.5;entryDx=0;entryDy=0;exitX=0.8;exitY=0.767;exitDx=0;exitDy=0;exitPerimeter=0;" parent="1" source="n0EiRWBT-wCzMLjuJNqS-5" target="n0EiRWBT-wCzMLjuJNqS-16" edge="1">
          <mxGeometry width="50" height="50" relative="1" as="geometry">
            <mxPoint x="150" y="660" as="sourcePoint" />
            <mxPoint x="512.2" y="580" as="targetPoint" />
          </mxGeometry>
        </mxCell>
        <mxCell id="n0EiRWBT-wCzMLjuJNqS-54" value="" style="endArrow=none;html=1;rounded=0;entryX=0;entryY=0.5;entryDx=0;entryDy=0;exitX=1;exitY=1;exitDx=0;exitDy=0;exitPerimeter=0;" parent="1" source="n0EiRWBT-wCzMLjuJNqS-6" target="n0EiRWBT-wCzMLjuJNqS-20" edge="1">
          <mxGeometry width="50" height="50" relative="1" as="geometry">
            <mxPoint x="132.5" y="932" as="sourcePoint" />
            <mxPoint x="492.5" y="974" as="targetPoint" />
          </mxGeometry>
        </mxCell>
        <mxCell id="n0EiRWBT-wCzMLjuJNqS-55" value="" style="endArrow=none;html=1;rounded=0;entryX=0;entryY=0.5;entryDx=0;entryDy=0;exitX=1;exitY=1;exitDx=0;exitDy=0;exitPerimeter=0;" parent="1" source="n0EiRWBT-wCzMLjuJNqS-6" target="n0EiRWBT-wCzMLjuJNqS-18" edge="1">
          <mxGeometry width="50" height="50" relative="1" as="geometry">
            <mxPoint x="130" y="898" as="sourcePoint" />
            <mxPoint x="488" y="974" as="targetPoint" />
          </mxGeometry>
        </mxCell>
        <mxCell id="n0EiRWBT-wCzMLjuJNqS-56" value="" style="endArrow=none;html=1;rounded=0;entryX=0;entryY=0.5;entryDx=0;entryDy=0;exitX=1;exitY=1;exitDx=0;exitDy=0;exitPerimeter=0;" parent="1" source="n0EiRWBT-wCzMLjuJNqS-6" target="n0EiRWBT-wCzMLjuJNqS-19" edge="1">
          <mxGeometry width="50" height="50" relative="1" as="geometry">
            <mxPoint x="130" y="915" as="sourcePoint" />
            <mxPoint x="493" y="924" as="targetPoint" />
          </mxGeometry>
        </mxCell>
        <mxCell id="W1tfH0mkeSNkXAhV65K7-2" value="" style="endArrow=block;endSize=16;endFill=0;html=1;rounded=0;entryX=0;entryY=0.3333333333333333;entryDx=0;entryDy=0;entryPerimeter=0;" edge="1" parent="1" source="n0EiRWBT-wCzMLjuJNqS-6" target="n0EiRWBT-wCzMLjuJNqS-1">
          <mxGeometry width="160" relative="1" as="geometry">
            <mxPoint y="1036" as="sourcePoint" />
            <mxPoint x="80" y="160" as="targetPoint" />
            <Array as="points">
              <mxPoint y="910" />
              <mxPoint y="650" />
              <mxPoint y="310" />
              <mxPoint y="230" />
              <mxPoint y="190" />
            </Array>
          </mxGeometry>
        </mxCell>
        <mxCell id="W1tfH0mkeSNkXAhV65K7-8" value="GENERALISATION" style="edgeLabel;html=1;align=center;verticalAlign=middle;resizable=0;points=[];" vertex="1" connectable="0" parent="W1tfH0mkeSNkXAhV65K7-2">
          <mxGeometry x="0.0667" y="-3" relative="1" as="geometry">
            <mxPoint y="1" as="offset" />
          </mxGeometry>
        </mxCell>
        <mxCell id="W1tfH0mkeSNkXAhV65K7-3" value="" style="endArrow=none;html=1;edgeStyle=orthogonalEdgeStyle;rounded=0;" edge="1" parent="1">
          <mxGeometry relative="1" as="geometry">
            <mxPoint y="650" as="sourcePoint" />
            <mxPoint x="120" y="657.94" as="targetPoint" />
            <Array as="points">
              <mxPoint x="90" y="638.94" />
            </Array>
          </mxGeometry>
        </mxCell>
        <mxCell id="W1tfH0mkeSNkXAhV65K7-7" value="" style="endArrow=none;html=1;edgeStyle=orthogonalEdgeStyle;rounded=0;entryX=0.125;entryY=0.854;entryDx=0;entryDy=0;entryPerimeter=0;" edge="1" parent="1" target="n0EiRWBT-wCzMLjuJNqS-2">
          <mxGeometry relative="1" as="geometry">
            <mxPoint y="370" as="sourcePoint" />
            <mxPoint x="100" y="370.40999999999997" as="targetPoint" />
            <Array as="points">
              <mxPoint x="114" y="371" />
            </Array>
          </mxGeometry>
        </mxCell>
        <mxCell id="W1tfH0mkeSNkXAhV65K7-9" value="Extends" style="endArrow=block;endSize=16;endFill=0;html=1;rounded=0;exitX=0.5;exitY=1;exitDx=0;exitDy=0;" edge="1" parent="1" source="n0EiRWBT-wCzMLjuJNqS-13">
          <mxGeometry width="160" relative="1" as="geometry">
            <mxPoint x="450" y="470" as="sourcePoint" />
            <mxPoint x="610" y="470" as="targetPoint" />
          </mxGeometry>
        </mxCell>
        <mxCell id="W1tfH0mkeSNkXAhV65K7-11" value="REJETER" style="ellipse;whiteSpace=wrap;html=1;" vertex="1" parent="1">
          <mxGeometry x="487.5" y="480" width="70" height="35" as="geometry" />
        </mxCell>
        <mxCell id="W1tfH0mkeSNkXAhV65K7-12" value="VALIDER" style="ellipse;whiteSpace=wrap;html=1;" vertex="1" parent="1">
          <mxGeometry x="587.5" y="480" width="70" height="35" as="geometry" />
        </mxCell>
        <mxCell id="W1tfH0mkeSNkXAhV65K7-13" value="Extends" style="endArrow=block;endSize=16;endFill=0;html=1;rounded=0;exitX=0.259;exitY=1.008;exitDx=0;exitDy=0;exitPerimeter=0;entryX=0.308;entryY=-0.069;entryDx=0;entryDy=0;entryPerimeter=0;" edge="1" parent="1" source="n0EiRWBT-wCzMLjuJNqS-13" target="W1tfH0mkeSNkXAhV65K7-11">
          <mxGeometry width="160" relative="1" as="geometry">
            <mxPoint x="512.5" y="395.99999999999994" as="sourcePoint" />
            <mxPoint x="503.98" y="471.95" as="targetPoint" />
          </mxGeometry>
        </mxCell>
        <mxCell id="W1tfH0mkeSNkXAhV65K7-14" value="REJETER" style="ellipse;whiteSpace=wrap;html=1;" vertex="1" parent="1">
          <mxGeometry x="517.5" y="740" width="70" height="35" as="geometry" />
        </mxCell>
        <mxCell id="W1tfH0mkeSNkXAhV65K7-15" value="APPROUVER" style="ellipse;whiteSpace=wrap;html=1;" vertex="1" parent="1">
          <mxGeometry x="610" y="740" width="90" height="35" as="geometry" />
        </mxCell>
        <mxCell id="W1tfH0mkeSNkXAhV65K7-16" value="Extends" style="endArrow=block;endSize=16;endFill=0;html=1;rounded=0;exitX=0.5;exitY=1;exitDx=0;exitDy=0;entryX=0.625;entryY=-0.035;entryDx=0;entryDy=0;entryPerimeter=0;" edge="1" parent="1" target="W1tfH0mkeSNkXAhV65K7-15">
          <mxGeometry width="160" relative="1" as="geometry">
            <mxPoint x="625" y="660" as="sourcePoint" />
            <mxPoint x="665" y="734" as="targetPoint" />
          </mxGeometry>
        </mxCell>
        <mxCell id="W1tfH0mkeSNkXAhV65K7-17" value="Extends" style="endArrow=block;endSize=16;endFill=0;html=1;rounded=0;exitX=0.328;exitY=1.086;exitDx=0;exitDy=0;entryX=0.4;entryY=0.099;entryDx=0;entryDy=0;entryPerimeter=0;exitPerimeter=0;" edge="1" parent="1" source="n0EiRWBT-wCzMLjuJNqS-16" target="W1tfH0mkeSNkXAhV65K7-14">
          <mxGeometry width="160" relative="1" as="geometry">
            <mxPoint x="540.63" y="658" as="sourcePoint" />
            <mxPoint x="569.63" y="737" as="targetPoint" />
          </mxGeometry>
        </mxCell>
        <mxCell id="W1tfH0mkeSNkXAhV65K7-18" value="&lt;font style=&quot;font-size: 17px;&quot;&gt;(Chargé de clientèle)&lt;/font&gt;" style="text;html=1;align=center;verticalAlign=middle;resizable=0;points=[];autosize=1;strokeColor=none;fillColor=none;" vertex="1" parent="1">
          <mxGeometry x="40" y="220" width="180" height="30" as="geometry" />
        </mxCell>
        <mxCell id="W1tfH0mkeSNkXAhV65K7-19" value="&lt;font style=&quot;font-size: 17px;&quot;&gt;(DRH REGIONAL)&lt;/font&gt;" style="text;html=1;align=center;verticalAlign=middle;resizable=0;points=[];autosize=1;strokeColor=none;fillColor=none;" vertex="1" parent="1">
          <mxGeometry x="50" y="430" width="160" height="30" as="geometry" />
        </mxCell>
        <mxCell id="W1tfH0mkeSNkXAhV65K7-20" value="&lt;font style=&quot;font-size: 17px;&quot;&gt;(CELLULE HABILITATION)&lt;/font&gt;" style="text;html=1;align=center;verticalAlign=middle;resizable=0;points=[];autosize=1;strokeColor=none;fillColor=none;" vertex="1" parent="1">
          <mxGeometry x="15" y="720" width="230" height="30" as="geometry" />
        </mxCell>
        <mxCell id="W1tfH0mkeSNkXAhV65K7-21" value="&lt;font style=&quot;font-size: 17px;&quot;&gt;(ADMIN IT)&lt;/font&gt;" style="text;html=1;align=center;verticalAlign=middle;resizable=0;points=[];autosize=1;strokeColor=none;fillColor=none;" vertex="1" parent="1">
          <mxGeometry x="60" y="990" width="110" height="30" as="geometry" />
        </mxCell>
      </root>
    </mxGraphModel>
  </diagram>
</mxfile>
